<svg width="374" height="50" viewBox="0 0 374 50" fill="none" xmlns="http://www.w3.org/2000/svg">
<path fill-rule="evenodd" clip-rule="evenodd" d="M0 25C0 11.1929 11.1929 0 25 0H286C294.718 0 302.393 4.46196 306.867 11.2267C309.316 14.9299 313.06 18 317.5 18C321.94 18 325.684 14.9299 328.133 11.2267C332.607 4.46196 340.282 0 349 0C362.807 0 374 11.1929 374 25C374 38.8071 362.807 50 349 50C340.771 50 333.471 46.0241 328.915 39.8886C326.133 36.1423 322.166 33 317.5 33C312.834 33 308.867 36.1423 306.085 39.8886C301.529 46.0241 294.229 50 286 50H25C11.1929 50 0 38.8071 0 25Z" fill="#F1A239"/>
</svg>
