<svg width="31" height="31" viewBox="0 0 31 31" fill="none" xmlns="http://www.w3.org/2000/svg">
<path d="M17.8508 28.4166H13.1492C12.5422 28.4166 12.0171 27.9942 11.8872 27.4013L11.3615 24.9678C10.6602 24.6606 9.99521 24.2763 9.37879 23.8221L7.006 24.5778C6.42733 24.7623 5.79827 24.5187 5.49475 23.9926L3.13875 19.9226C2.83855 19.3963 2.94198 18.7323 3.38804 18.3222L5.22867 16.643C5.14496 15.8824 5.14496 15.1149 5.22867 14.3542L3.38804 12.6789C2.94132 12.2686 2.83785 11.6039 3.13875 11.0773L5.48958 7.00463C5.79311 6.47853 6.42217 6.23497 7.00083 6.4195L9.37362 7.17513C9.68887 6.94154 10.017 6.72592 10.3566 6.52929C10.6825 6.34548 11.018 6.17905 11.3615 6.03071L11.8885 3.59979C12.0178 3.00688 12.5423 2.58389 13.1492 2.58325H17.8508C18.4577 2.58389 18.9822 3.00688 19.1115 3.59979L19.6437 6.032C20.0064 6.19154 20.3596 6.37181 20.7015 6.57192C21.0205 6.75638 21.3288 6.95863 21.6251 7.17771L23.9992 6.42209C24.5774 6.23824 25.2057 6.48171 25.5091 7.00721L27.86 11.0798C28.1602 11.6062 28.0567 12.2701 27.6107 12.6802L25.77 14.3594C25.8537 15.12 25.8537 15.8876 25.77 16.6482L27.6107 18.3274C28.0567 18.7375 28.1602 19.4014 27.86 19.9278L25.5091 24.0004C25.2057 24.5259 24.5774 24.7693 23.9992 24.5855L21.6251 23.8299C21.3247 24.0511 21.0125 24.2559 20.6899 24.4434C20.3513 24.6396 20.002 24.8169 19.6437 24.9743L19.1115 27.4013C18.9817 27.9937 18.4573 28.4161 17.8508 28.4166ZM9.8425 20.9624L10.9017 21.7374C11.1404 21.9132 11.3893 22.075 11.647 22.2218C11.8894 22.3622 12.139 22.4898 12.3948 22.6041L13.6 23.1324L14.1902 25.8333H16.8123L17.4026 23.1311L18.6077 22.6028C19.1339 22.3708 19.6332 22.0823 20.097 21.7425L21.1575 20.9675L23.7938 21.8071L25.1048 19.5364L23.0601 17.6725L23.2048 16.3653C23.2683 15.7936 23.2683 15.2166 23.2048 14.6448L23.0601 13.3377L25.1061 11.4699L23.7938 9.19788L21.1575 10.0375L20.097 9.26246C19.6331 8.92109 19.1338 8.63052 18.6077 8.39575L17.4026 7.86746L16.8123 5.16659H14.1902L13.5974 7.86875L12.3948 8.39575C12.1388 8.50818 11.8892 8.63452 11.647 8.77421C11.3909 8.92059 11.1433 9.08145 10.9055 9.256L9.84508 10.031L7.21008 9.19142L5.89646 11.4699L7.94117 13.3312L7.7965 14.6397C7.73295 15.2114 7.73295 15.7884 7.7965 16.3602L7.94117 17.6673L5.89646 19.5312L7.2075 21.802L9.8425 20.9624ZM15.4948 20.6666C12.6414 20.6666 10.3282 18.3534 10.3282 15.4999C10.3282 12.6464 12.6414 10.3333 15.4948 10.3333C18.3483 10.3333 20.6615 12.6464 20.6615 15.4999C20.6579 18.3519 18.3468 20.663 15.4948 20.6666ZM15.4948 12.9166C14.0836 12.918 12.9346 14.0518 12.9144 15.4629C12.8942 16.874 14.0101 18.0402 15.4208 18.0821C16.8315 18.124 18.0147 17.026 18.0782 15.6162V16.1328V15.4999C18.0782 14.0732 16.9216 12.9166 15.4948 12.9166Z" fill="#FDFDFD"/>
</svg>
