<svg width="40" height="40" viewBox="0 0 40 40" fill="none" xmlns="http://www.w3.org/2000/svg">
<path d="M20 3.33325C10.8 3.33325 3.33333 10.7999 3.33333 19.9999C3.33333 29.1999 10.8 36.6666 20 36.6666C29.2 36.6666 36.6667 29.1999 36.6667 19.9999C36.6667 10.7999 29.2 3.33325 20 3.33325ZM20 33.3333C12.65 33.3333 6.66667 27.3499 6.66667 19.9999C6.66667 12.6499 12.65 6.66659 20 6.66659C27.35 6.66659 33.3333 12.6499 33.3333 19.9999C33.3333 27.3499 27.35 33.3333 20 33.3333ZM15.8333 27.4999L27.5 19.9999L15.8333 12.4999V27.4999Z" fill="#FDFDFD"/>
</svg>
