<svg width="40" height="40" viewBox="0 0 40 40" fill="none" xmlns="http://www.w3.org/2000/svg">
<path d="M14.9999 26.6666H18.3333V13.3333H14.9999V26.6666ZM19.9999 3.33325C10.7999 3.33325 3.33325 10.7999 3.33325 19.9999C3.33325 29.1999 10.7999 36.6666 19.9999 36.6666C29.1999 36.6666 36.6666 29.1999 36.6666 19.9999C36.6666 10.7999 29.1999 3.33325 19.9999 3.33325ZM19.9999 33.3333C12.6499 33.3333 6.66659 27.3499 6.66659 19.9999C6.66659 12.6499 12.6499 6.66659 19.9999 6.66659C27.3499 6.66659 33.3333 12.6499 33.3333 19.9999C33.3333 27.3499 27.3499 33.3333 19.9999 33.3333ZM21.6666 26.6666H24.9999V13.3333H21.6666V26.6666Z" fill="#FDFDFD"/>
</svg>
